<svg width="24" height="25" viewBox="0 0 24 25" fill="none" xmlns="http://www.w3.org/2000/svg">
<path fill-rule="evenodd" clip-rule="evenodd" d="M20.8867 7.55857C20.3347 5.03944 18.0249 3.30159 15.4515 3.46916C12.878 3.63672 10.8131 5.65941 10.5924 8.22885C10.5748 8.51631 10.6845 8.79696 10.8925 8.99617L15.4735 13.5771C15.6723 13.785 15.9526 13.8948 16.2398 13.8772C17.7357 13.7468 19.103 12.9787 19.9926 11.7691C20.8822 10.5594 21.208 9.02535 20.8867 7.55857V7.55857Z" stroke="#0142FE" stroke-width="1.5" stroke-linecap="round" stroke-linejoin="round"/>
<path d="M15.4857 13.5923L6.86808 20.108C6.39432 20.4646 5.73043 20.4186 5.31044 20L4.47009 19.1606C4.05081 18.7404 4.00515 18.0755 4.36304 17.602L10.8778 8.98438" stroke="#0142FE" stroke-width="1.5" stroke-linecap="round" stroke-linejoin="round"/>
<path d="M4.88913 19.5801L2.99634 21.4729" stroke="#0142FE" stroke-width="1.5" stroke-linecap="round" stroke-linejoin="round"/>
</svg>
