<svg width="24" height="25" viewBox="0 0 24 25" fill="none" xmlns="http://www.w3.org/2000/svg">
<path d="M18.3639 6.10479C21.8787 9.61951 21.8787 15.318 18.3639 18.8327C14.8492 22.3474 9.15074 22.3474 5.63604 18.8327C2.12132 15.318 2.12132 9.61949 5.63604 6.10479C9.15076 2.59007 14.8492 2.59007 18.3639 6.10479" stroke="#0142FE" stroke-width="1.5" stroke-linecap="round" stroke-linejoin="round"/>
<path d="M13.4142 11.0545C14.1953 11.8356 14.1953 13.1019 13.4142 13.883C12.6332 14.664 11.3668 14.664 10.5858 13.883C9.80474 13.1019 9.80474 11.8356 10.5858 11.0545C11.3668 10.2735 12.6332 10.2735 13.4142 11.0545" stroke="#0142FE" stroke-width="1.5" stroke-linecap="round" stroke-linejoin="round"/>
<path d="M15 7.27734C16.516 8.15534 17.609 9.67534 17.91 11.4683" stroke="#0142FE" stroke-width="1.5" stroke-linecap="round" stroke-linejoin="round"/>
<path d="M9.00009 17.6597C7.48409 16.7807 6.39109 15.2608 6.09009 13.4688" stroke="#0142FE" stroke-width="1.5" stroke-linecap="round" stroke-linejoin="round"/>
</svg>
