<svg width="24" height="25" viewBox="0 0 24 25" fill="none" xmlns="http://www.w3.org/2000/svg">
<path d="M8.5 18.25V8.43302C8.5 8.01802 8.756 7.64602 9.144 7.49902L17.644 4.26102C18.299 4.01102 19 4.49502 19 5.19502V16.244" stroke="#0142FE" stroke-width="1.5" stroke-linecap="round" stroke-linejoin="round"/>
<path d="M18.2678 14.4764C19.2441 15.4527 19.2441 17.0356 18.2678 18.0119C17.2915 18.9882 15.7085 18.9882 14.7322 18.0119C13.7559 17.0356 13.7559 15.4527 14.7322 14.4764C15.7085 13.5001 17.2915 13.5001 18.2678 14.4764" stroke="#0142FE" stroke-width="1.5" stroke-linecap="round" stroke-linejoin="round"/>
<path d="M7.76776 16.4764C8.74407 17.4527 8.74407 19.0356 7.76776 20.0119C6.79145 20.9882 5.20854 20.9882 4.23223 20.0119C3.25592 19.0356 3.25592 17.4527 4.23223 16.4764C5.20854 15.5001 6.79145 15.5001 7.76776 16.4764" stroke="#0142FE" stroke-width="1.5" stroke-linecap="round" stroke-linejoin="round"/>
</svg>
