<svg width="24" height="24" viewBox="0 0 24 24" fill="none" xmlns="http://www.w3.org/2000/svg">
<path d="M14.5582 13.5577C13.9186 14.6361 12.6764 15.2036 11.4426 14.9811C10.2087 14.7585 9.24301 13.7928 9.02048 12.559C8.79795 11.3251 9.36544 10.0829 10.4438 9.44336" stroke="#737E8C" stroke-width="1.5" stroke-linecap="round" stroke-linejoin="round"/>
<path d="M17.9969 16.9963C16.2721 18.3046 14.1651 19.0097 12.0003 19.0031C8.41322 19.0669 5.09886 17.0955 3.44275 13.9129C2.84786 12.7071 2.84786 11.2932 3.44275 10.0873C4.271 8.43797 5.5913 7.08671 7.22105 6.22046" stroke="#737E8C" stroke-width="1.5" stroke-linecap="round" stroke-linejoin="round"/>
<path d="M20.4272 14.1345C20.4674 14.0585 20.5196 13.9903 20.5576 13.9128C21.1524 12.707 21.1524 11.293 20.5576 10.0872C18.9015 6.90465 15.5871 4.93323 12 4.99711C11.7751 4.99711 11.5565 5.02712 11.3345 5.04175" stroke="#737E8C" stroke-width="1.5" stroke-linecap="round" stroke-linejoin="round"/>
<path d="M21.0037 20.0034L3.99658 2.99634" stroke="#737E8C" stroke-width="1.5" stroke-linecap="round" stroke-linejoin="round"/>
</svg>
