<svg width="24" height="25" viewBox="0 0 24 25" fill="none" xmlns="http://www.w3.org/2000/svg">
<path d="M20.7926 9.99194C21.5826 10.782 21.5826 12.0629 20.7926 12.8529C20.0026 13.6429 18.7217 13.6429 17.9316 12.8529C17.1416 12.0629 17.1416 10.782 17.9316 9.99194C18.7217 9.20191 20.0026 9.20191 20.7926 9.99194" stroke="#5C6B7E" stroke-width="1.5" stroke-linecap="round" stroke-linejoin="round"/>
<path d="M14.2026 6.38111C15.4191 7.59759 15.4191 9.5699 14.2026 10.7864C12.9862 12.0029 11.0139 12.0029 9.79737 10.7864C8.58089 9.56991 8.58089 7.5976 9.79737 6.38111C11.0138 5.16463 12.9862 5.16463 14.2026 6.38111" stroke="#5C6B7E" stroke-width="1.5" stroke-linecap="round" stroke-linejoin="round"/>
<path d="M6.06846 9.99194C6.85849 10.782 6.85849 12.0629 6.06846 12.8529C5.27843 13.6429 3.99754 13.6429 3.20751 12.8529C2.41748 12.0629 2.41748 10.782 3.20751 9.99194C3.99754 9.20191 5.27843 9.20191 6.06846 9.99194" stroke="#5C6B7E" stroke-width="1.5" stroke-linecap="round" stroke-linejoin="round"/>
<path d="M23 19.469V18.373C23 16.992 21.881 15.873 20.5 15.873H19.699" stroke="#5C6B7E" stroke-width="1.5" stroke-linecap="round" stroke-linejoin="round"/>
<path d="M1 19.469V18.373C1 16.992 2.119 15.873 3.5 15.873H4.301" stroke="#5C6B7E" stroke-width="1.5" stroke-linecap="round" stroke-linejoin="round"/>
<path d="M17.3389 19.4692V17.8682C17.3389 15.9352 15.7719 14.3682 13.8389 14.3682H10.1599C8.22691 14.3682 6.65991 15.9352 6.65991 17.8682V19.4692" stroke="#5C6B7E" stroke-width="1.5" stroke-linecap="round" stroke-linejoin="round"/>
</svg>
