<svg width="24" height="25" viewBox="0 0 24 25" fill="none" xmlns="http://www.w3.org/2000/svg">
<path d="M14.5582 14.0577C13.9186 15.1361 12.6764 15.7036 11.4426 15.4811C10.2087 15.2585 9.24301 14.2928 9.02048 13.059C8.79795 11.8251 9.36544 10.5829 10.4438 9.94336" stroke="#5C6570" stroke-width="1.5" stroke-linecap="round" stroke-linejoin="round"/>
<path d="M17.9969 17.4963C16.2721 18.8046 14.1651 19.5097 12.0003 19.5031C8.41322 19.5669 5.09886 17.5955 3.44275 14.4129C2.84786 13.2071 2.84786 11.7932 3.44275 10.5873C4.271 8.93797 5.5913 7.58671 7.22105 6.72046" stroke="#5C6570" stroke-width="1.5" stroke-linecap="round" stroke-linejoin="round"/>
<path d="M20.4272 14.6345C20.4674 14.5585 20.5196 14.4903 20.5576 14.4128C21.1524 13.207 21.1524 11.793 20.5576 10.5872C18.9015 7.40465 15.5871 5.43323 12 5.49711C11.7751 5.49711 11.5565 5.52712 11.3345 5.54175" stroke="#5C6570" stroke-width="1.5" stroke-linecap="round" stroke-linejoin="round"/>
<path d="M21.0037 20.5034L3.99658 3.49634" stroke="#5C6570" stroke-width="1.5" stroke-linecap="round" stroke-linejoin="round"/>
</svg>
