<svg width="130" height="49" viewBox="0 0 130 49" fill="none" xmlns="http://www.w3.org/2000/svg">
<ellipse cx="24.6919" cy="24.2346" rx="24.6919" ry="24.2346" fill="white"/>
<g clip-path="url(#clip0_590_20521)">
<path d="M39.1149 26.2564L39.149 18.2026C39.149 14.4623 37.1431 12.6865 33.7748 12.6865C30.9742 12.6865 28.5521 14.3489 27.4924 16.0113C26.8099 13.9333 25.1068 12.6865 22.4197 12.6865C19.7327 12.6865 17.197 14.4245 16.4401 15.5201V13.1399H11.6336V31.27C11.158 31.2625 10.6206 31.2285 10.3418 31.1693L10.3834 35.8542C11.9515 35.8403 13.6445 35.1955 14.9615 34.2598C15.9064 33.5886 16.4577 32.4942 16.4502 31.3368L16.4401 29.6945V20.831C16.4401 18.928 17.8126 17.2619 19.6986 16.9936C19.8702 16.9697 20.0455 16.9558 20.2247 16.9558C22.1927 16.9558 22.9496 18.1649 22.9496 19.865V28.1493C22.4803 28.1405 21.9593 28.1077 21.6855 28.0498L21.7272 32.7347C23.2952 32.7208 24.9882 32.076 26.3053 31.1403C27.2502 30.4691 27.8015 29.3747 27.7939 28.2173L27.7914 27.6972C27.7926 27.6556 27.7939 27.6153 27.7939 27.5737V20.8209C27.7939 18.7895 29.3645 17.0566 31.3968 16.9609C31.4574 16.9584 31.5167 16.9571 31.5785 16.9571C33.5465 16.9571 34.3034 18.1661 34.3034 19.8663V30.2247C33.8341 30.2159 33.3131 30.1832 33.0394 30.1252L33.081 34.8102C34.6491 34.7963 36.3421 34.1515 37.6591 33.2158C38.604 32.5445 39.1553 31.4501 39.1477 30.2927L39.1237 26.2438C39.1237 26.2438 39.1174 26.2539 39.1136 26.2589L39.1149 26.2564Z" fill="#F48C06"/>
</g>
<g clip-path="url(#clip1_590_20521)">
<path d="M68.331 30.4423V22.2044C68.331 20.9892 67.7895 20.125 66.3817 20.125C65.1634 20.125 64.1616 20.9352 63.6743 21.6373V30.4414H60.2089V22.2044C60.2089 20.9892 59.6674 20.125 58.2595 20.125C57.0683 20.125 56.0666 20.9352 55.5521 21.6643V30.4414H52.1138V17.3973H55.5521V19.0987C56.0936 18.3155 57.8264 17.0732 59.8298 17.0732C61.8333 17.0732 62.9704 17.9645 63.4577 19.4498C64.2158 18.2615 65.9485 17.0732 67.952 17.0732C70.3615 17.0732 71.7965 18.3425 71.7965 21.0162V30.4414H68.331V30.4423Z" fill="#2E3238"/>
<path d="M110.568 23.7691C110.568 22.5629 110.813 21.4601 111.302 20.4627C111.791 19.4652 112.468 18.6766 113.332 18.0978C114.197 17.519 115.183 17.2291 116.292 17.2291C117.222 17.2291 118.07 17.4614 118.837 17.925C119.604 18.3886 120.191 18.9782 120.599 19.6948V12.2734H123.902V26.4293C123.902 26.7713 123.959 27.0153 124.073 27.1611C124.187 27.3079 124.383 27.397 124.661 27.4294V30.0895C124.073 30.203 123.609 30.2516 123.267 30.2363C122.679 30.2525 122.194 30.1138 121.811 29.8213C121.427 29.5287 121.212 29.1461 121.163 28.6744L121.114 27.8687C120.641 28.6663 120.001 29.2766 119.194 29.6988C118.386 30.1219 117.542 30.3335 116.662 30.3335C115.781 30.3335 114.969 30.1687 114.227 29.8393C113.484 29.5098 112.841 29.0426 112.294 28.4394C111.747 27.8363 111.323 27.1359 111.021 26.3392C110.719 25.5426 110.568 24.6865 110.568 23.7682V23.7691ZM120.624 25.7334V22.453C120.461 21.9903 120.2 21.5753 119.841 21.208C119.482 20.8408 119.083 20.55 118.642 20.3348C118.202 20.1197 117.762 20.0117 117.321 20.0117C116.816 20.0117 116.358 20.1152 115.951 20.3231C115.543 20.5302 115.189 20.8101 114.887 21.1612C114.585 21.5123 114.357 21.9156 114.202 22.3702C114.047 22.8248 113.969 23.3082 113.969 23.8187C113.969 24.3291 114.059 24.8368 114.238 25.2914C114.418 25.746 114.663 26.1448 114.972 26.4887C115.282 26.8317 115.657 27.0954 116.097 27.2791C116.538 27.4627 117.011 27.5545 117.516 27.5545C117.842 27.5545 118.161 27.5023 118.47 27.3988C118.78 27.2953 119.077 27.1476 119.364 26.9559C119.649 26.7641 119.906 26.5409 120.134 26.2852L120.623 25.7352L120.624 25.7334Z" fill="#2E3238"/>
<path d="M73.0142 23.8082C73.0142 20.0273 75.8028 16.9756 79.7826 16.9756C83.7625 16.9756 86.3345 19.8923 86.3345 24.1593V24.9155H76.615C76.8316 26.5628 78.1582 27.9402 80.3782 27.9402C81.4883 27.9402 83.0315 27.454 83.8708 26.6439L85.3869 28.8584C84.0874 30.0467 82.0298 30.6678 79.9992 30.6678C76.0194 30.6678 73.0142 27.9942 73.0142 23.8082ZM79.4216 19.7032C77.2828 19.7032 76.3623 21.2966 76.1999 22.5929H82.6434C82.5622 21.3506 81.6958 19.7032 79.4216 19.7032Z" fill="#2E3238"/>
<path d="M87.5767 30.2763V17.2323H91.015V19.0147C91.9355 17.8534 93.56 16.9082 95.1844 16.9082V20.257C94.9407 20.203 94.6159 20.176 94.2368 20.176C93.0997 20.176 91.5836 20.8241 91.015 21.6613V30.2763H87.5767Z" fill="#2E3238"/>
<path d="M95.4363 23.6685C95.4363 19.9687 98.0354 16.8359 102.34 16.8359C106.645 16.8359 109.271 19.9687 109.271 23.6685C109.271 27.3684 106.672 30.5282 102.34 30.5282C98.0083 30.5282 95.4363 27.3954 95.4363 23.6685ZM105.968 23.6685C105.968 21.6431 104.75 19.8877 102.611 19.8877C100.472 19.8877 99.2808 21.6431 99.2808 23.6685C99.2808 25.694 100.472 27.4764 102.611 27.4764C104.75 27.4764 105.968 25.721 105.968 23.6685Z" fill="#2E3238"/>
<path d="M125.885 13.7931C125.885 12.6588 126.833 11.7676 127.943 11.7676C129.053 11.7676 130 12.6588 130 13.7931C130 14.9273 129.08 15.8455 127.943 15.8455C126.806 15.8455 125.885 14.9273 125.885 13.7931ZM126.237 30.1139V17.0698H129.676V30.1139H126.237Z" fill="#2E3238"/>
</g>
<defs>
<clipPath id="clip0_590_20521">
<rect width="28.8072" height="23.1677" fill="white" transform="translate(10.3418 12.6865)"/>
</clipPath>
<clipPath id="clip1_590_20521">
<rect width="77.8861" height="18.8999" fill="white" transform="translate(52.1135 11.7676)"/>
</clipPath>
</defs>
</svg>
